<?xml version="1.0" standalone="no"?>
<!DOCTYPE svg PUBLIC "-//W3C//DTD SVG 20010904//EN"
 "http://www.w3.org/TR/2001/REC-SVG-20010904/DTD/svg10.dtd">
<svg version="1.0" xmlns="http://www.w3.org/2000/svg"
 width="512.000000pt" height="512.000000pt" viewBox="0 0 512.000000 512.000000"
 preserveAspectRatio="xMidYMid meet">
<metadata>
Created by potrace 1.14, written by Peter Selinger 2001-2017
</metadata>
<g transform="translate(0.000000,512.000000) scale(0.100000,-0.100000)"
fill="#000000" stroke="none">
<path d="M735 5024 c-70 -36 -101 -92 -91 -164 10 -70 59 -122 128 -135 53
-10 91 2 140 44 l43 37 148 -1 147 0 176 -176 175 -175 -31 -33 c-43 -44 -46
-81 -16 -170 14 -41 26 -80 26 -86 0 -9 -103 -11 -394 -11 l-393 1 -41 37
c-73 66 -176 60 -236 -15 -27 -34 -31 -47 -31 -97 0 -90 54 -150 141 -155 59
-4 89 7 134 49 l35 32 375 -1 375 -1 -3 -24 c-5 -44 -30 -67 -134 -120 -56
-29 -108 -60 -115 -69 -8 -10 -12 -50 -13 -103 l0 -88 -367 -1 c-203 0 -378
-2 -391 -5 -34 -6 -93 -39 -125 -69 -29 -28 -64 -90 -71 -127 -3 -13 -5 -656
-5 -1430 l-1 -1408 -135 0 c-133 0 -137 -1 -162 -26 -25 -25 -25 -27 -21 -147
3 -99 8 -130 25 -162 25 -47 74 -95 123 -121 34 -18 113 -19 2410 -19 l2375 0
40 22 c53 28 99 78 123 132 15 34 20 68 21 157 2 109 1 115 -23 139 -24 24
-29 25 -161 25 l-135 0 -1 1408 c0 774 -2 1417 -5 1430 -15 84 -112 181 -196
196 -13 3 -188 5 -390 5 l-368 1 0 86 c0 47 -5 94 -10 105 -6 10 -60 44 -121
75 -96 48 -112 60 -125 91 -8 19 -12 38 -9 42 4 3 176 6 382 6 l376 0 36 -37
c27 -27 49 -38 81 -43 157 -23 250 155 140 265 -64 64 -160 63 -227 -2 l-34
-33 -395 0 c-216 -1 -394 2 -394 5 0 3 13 45 29 94 33 101 30 120 -19 171
l-30 31 175 174 175 175 147 0 148 1 41 -37 c66 -59 143 -64 210 -13 68 51 82
151 30 219 -34 44 -58 57 -114 60 -57 4 -88 -8 -130 -48 l-33 -32 -157 -1
c-92 0 -172 -5 -192 -12 -24 -8 -92 -69 -220 -197 l-184 -185 -31 30 c-52 50
-69 52 -185 14 -58 -19 -115 -34 -127 -34 -24 0 -170 56 -191 73 -8 6 -37 58
-64 115 -37 75 -57 106 -75 113 -29 11 -339 11 -367 0 -11 -4 -44 -55 -75
-117 -50 -96 -61 -111 -96 -128 -77 -37 -134 -58 -160 -61 -5 -1 -55 14 -109
32 -127 42 -144 42 -191 -3 l-38 -36 -186 186 c-102 102 -199 190 -216 197
-18 7 -95 12 -192 13 l-162 1 -34 33 c-52 51 -126 66 -182 36z m1939 -960
c193 -47 342 -217 361 -409 l6 -55 -481 0 -481 0 6 54 c13 135 94 267 213 347
101 68 252 94 376 63z"/>
</g>
</svg>
